<mxfile host="app.diagrams.net" modified="2021-01-21T06:31:31.136Z" agent="5.0 (Macintosh; Intel Mac OS X 11_0_0) AppleWebKit/537.36 (KHTML, like Gecko) Chrome/86.0.4240.183 Safari/537.36" etag="a9XBtTHah0D-CTxfPMNn" version="14.2.6" type="github">
  <diagram id="C8N531PrXaPBDPDHlK4V" name="Page-1">
    <mxGraphModel dx="1186" dy="684" grid="1" gridSize="10" guides="1" tooltips="1" connect="1" arrows="1" fold="1" page="1" pageScale="1" pageWidth="827" pageHeight="1169" math="0" shadow="0">
      <root>
        <mxCell id="0" />
        <mxCell id="1" parent="0" />
        <mxCell id="0T_iKl2mhXwXP4Xsc4Me-2" value="DST: &lt;u&gt;D&lt;/u&gt;&lt;br&gt;SRC: &lt;u&gt;S&lt;/u&gt;" style="rounded=0;whiteSpace=wrap;html=1;align=left;" parent="1" vertex="1">
          <mxGeometry x="60" y="40" width="60" height="40" as="geometry" />
        </mxCell>
        <mxCell id="0T_iKl2mhXwXP4Xsc4Me-14" value="" style="edgeStyle=orthogonalEdgeStyle;rounded=0;orthogonalLoop=1;jettySize=auto;html=1;" parent="1" source="0T_iKl2mhXwXP4Xsc4Me-3" target="0T_iKl2mhXwXP4Xsc4Me-12" edge="1">
          <mxGeometry relative="1" as="geometry" />
        </mxCell>
        <mxCell id="0T_iKl2mhXwXP4Xsc4Me-3" value="R1" style="ellipse;whiteSpace=wrap;html=1;aspect=fixed;" parent="1" vertex="1">
          <mxGeometry x="200" y="270" width="50" height="50" as="geometry" />
        </mxCell>
        <mxCell id="0T_iKl2mhXwXP4Xsc4Me-13" value="" style="edgeStyle=orthogonalEdgeStyle;rounded=0;orthogonalLoop=1;jettySize=auto;html=1;" parent="1" source="0T_iKl2mhXwXP4Xsc4Me-4" target="0T_iKl2mhXwXP4Xsc4Me-3" edge="1">
          <mxGeometry relative="1" as="geometry" />
        </mxCell>
        <mxCell id="0T_iKl2mhXwXP4Xsc4Me-4" value="S" style="whiteSpace=wrap;html=1;aspect=fixed;" parent="1" vertex="1">
          <mxGeometry x="100" y="270" width="50" height="50" as="geometry" />
        </mxCell>
        <mxCell id="0T_iKl2mhXwXP4Xsc4Me-6" value="D" style="whiteSpace=wrap;html=1;aspect=fixed;" parent="1" vertex="1">
          <mxGeometry x="430" y="270" width="50" height="50" as="geometry" />
        </mxCell>
        <mxCell id="0T_iKl2mhXwXP4Xsc4Me-9" value="DST: D&lt;br&gt;SRC: S" style="rounded=0;whiteSpace=wrap;html=1;align=left;" parent="1" vertex="1">
          <mxGeometry x="60" y="80" width="60" height="40" as="geometry" />
        </mxCell>
        <mxCell id="0T_iKl2mhXwXP4Xsc4Me-10" value="第二层: MAC头部" style="text;html=1;align=center;verticalAlign=middle;resizable=0;points=[];autosize=1;" parent="1" vertex="1">
          <mxGeometry x="120" y="50" width="110" height="20" as="geometry" />
        </mxCell>
        <mxCell id="0T_iKl2mhXwXP4Xsc4Me-11" value="第三层: IP头部" style="text;html=1;align=center;verticalAlign=middle;resizable=0;points=[];autosize=1;" parent="1" vertex="1">
          <mxGeometry x="127" y="90" width="90" height="20" as="geometry" />
        </mxCell>
        <mxCell id="0T_iKl2mhXwXP4Xsc4Me-15" value="" style="edgeStyle=orthogonalEdgeStyle;rounded=0;orthogonalLoop=1;jettySize=auto;html=1;" parent="1" source="0T_iKl2mhXwXP4Xsc4Me-12" target="0T_iKl2mhXwXP4Xsc4Me-6" edge="1">
          <mxGeometry relative="1" as="geometry" />
        </mxCell>
        <mxCell id="0T_iKl2mhXwXP4Xsc4Me-12" value="R2" style="ellipse;whiteSpace=wrap;html=1;aspect=fixed;" parent="1" vertex="1">
          <mxGeometry x="310" y="270" width="50" height="50" as="geometry" />
        </mxCell>
        <mxCell id="0T_iKl2mhXwXP4Xsc4Me-16" value="DST:&amp;nbsp;&amp;nbsp;&lt;u&gt;R1a&lt;/u&gt;&lt;br&gt;SRC:&amp;nbsp;&lt;u&gt;S&lt;/u&gt;" style="rounded=0;whiteSpace=wrap;html=1;align=left;" parent="1" vertex="1">
          <mxGeometry x="217" y="170" width="63" height="40" as="geometry" />
        </mxCell>
        <mxCell id="0T_iKl2mhXwXP4Xsc4Me-43" style="edgeStyle=orthogonalEdgeStyle;rounded=0;orthogonalLoop=1;jettySize=auto;html=1;exitX=0;exitY=0;exitDx=0;exitDy=0;" parent="1" source="0T_iKl2mhXwXP4Xsc4Me-17" edge="1">
          <mxGeometry relative="1" as="geometry">
            <mxPoint x="170" y="300" as="targetPoint" />
            <Array as="points">
              <mxPoint x="170" y="210" />
            </Array>
          </mxGeometry>
        </mxCell>
        <mxCell id="0T_iKl2mhXwXP4Xsc4Me-17" value="DST: D&lt;br&gt;SRC: S" style="rounded=0;whiteSpace=wrap;html=1;align=left;" parent="1" vertex="1">
          <mxGeometry x="217" y="210" width="63" height="40" as="geometry" />
        </mxCell>
        <mxCell id="0T_iKl2mhXwXP4Xsc4Me-32" value="a" style="text;html=1;align=center;verticalAlign=middle;resizable=0;points=[];autosize=1;" parent="1" vertex="1">
          <mxGeometry x="180" y="270" width="20" height="20" as="geometry" />
        </mxCell>
        <mxCell id="0T_iKl2mhXwXP4Xsc4Me-33" value="b" style="text;html=1;align=center;verticalAlign=middle;resizable=0;points=[];autosize=1;" parent="1" vertex="1">
          <mxGeometry x="250" y="270" width="20" height="20" as="geometry" />
        </mxCell>
        <mxCell id="0T_iKl2mhXwXP4Xsc4Me-34" value="a" style="text;html=1;align=center;verticalAlign=middle;resizable=0;points=[];autosize=1;" parent="1" vertex="1">
          <mxGeometry x="290" y="270" width="20" height="20" as="geometry" />
        </mxCell>
        <mxCell id="0T_iKl2mhXwXP4Xsc4Me-35" value="b" style="text;html=1;align=center;verticalAlign=middle;resizable=0;points=[];autosize=1;" parent="1" vertex="1">
          <mxGeometry x="360" y="270" width="20" height="20" as="geometry" />
        </mxCell>
        <mxCell id="0T_iKl2mhXwXP4Xsc4Me-36" value="DST: &lt;u&gt;R2a&lt;/u&gt;&lt;br&gt;SRC: &lt;u&gt;R1b&lt;/u&gt;" style="rounded=0;whiteSpace=wrap;html=1;align=left;" parent="1" vertex="1">
          <mxGeometry x="195" y="360" width="60" height="40" as="geometry" />
        </mxCell>
        <mxCell id="0T_iKl2mhXwXP4Xsc4Me-39" style="edgeStyle=orthogonalEdgeStyle;rounded=0;orthogonalLoop=1;jettySize=auto;html=1;exitX=1;exitY=0;exitDx=0;exitDy=0;" parent="1" source="0T_iKl2mhXwXP4Xsc4Me-37" edge="1">
          <mxGeometry relative="1" as="geometry">
            <mxPoint x="270" y="300" as="targetPoint" />
            <Array as="points">
              <mxPoint x="270" y="400" />
            </Array>
          </mxGeometry>
        </mxCell>
        <mxCell id="0T_iKl2mhXwXP4Xsc4Me-37" value="DST: D&lt;br&gt;SRC: S" style="rounded=0;whiteSpace=wrap;html=1;align=left;" parent="1" vertex="1">
          <mxGeometry x="195" y="400" width="60" height="40" as="geometry" />
        </mxCell>
        <mxCell id="0T_iKl2mhXwXP4Xsc4Me-42" style="edgeStyle=orthogonalEdgeStyle;rounded=0;orthogonalLoop=1;jettySize=auto;html=1;exitX=0;exitY=1;exitDx=0;exitDy=0;" parent="1" source="0T_iKl2mhXwXP4Xsc4Me-40" edge="1">
          <mxGeometry relative="1" as="geometry">
            <mxPoint x="390" y="300" as="targetPoint" />
            <Array as="points">
              <mxPoint x="390" y="210" />
            </Array>
          </mxGeometry>
        </mxCell>
        <mxCell id="0T_iKl2mhXwXP4Xsc4Me-40" value="DST:&amp;nbsp;&amp;nbsp;&lt;u&gt;D&lt;/u&gt;&lt;br&gt;SRC: &lt;u&gt;R2b&lt;/u&gt;" style="rounded=0;whiteSpace=wrap;html=1;align=left;" parent="1" vertex="1">
          <mxGeometry x="417" y="170" width="63" height="40" as="geometry" />
        </mxCell>
        <mxCell id="0T_iKl2mhXwXP4Xsc4Me-41" value="DST: D&lt;br&gt;SRC: S" style="rounded=0;whiteSpace=wrap;html=1;align=left;" parent="1" vertex="1">
          <mxGeometry x="417" y="210" width="63" height="40" as="geometry" />
        </mxCell>
        <mxCell id="0T_iKl2mhXwXP4Xsc4Me-44" value="S" style="whiteSpace=wrap;html=1;aspect=fixed;" parent="1" vertex="1">
          <mxGeometry x="140" y="640" width="50" height="50" as="geometry" />
        </mxCell>
        <mxCell id="0T_iKl2mhXwXP4Xsc4Me-45" value="D" style="whiteSpace=wrap;html=1;aspect=fixed;" parent="1" vertex="1">
          <mxGeometry x="383" y="690" width="50" height="50" as="geometry" />
        </mxCell>
        <mxCell id="0T_iKl2mhXwXP4Xsc4Me-46" value="交换机" style="whiteSpace=wrap;html=1;aspect=fixed;" parent="1" vertex="1">
          <mxGeometry x="283" y="640" width="50" height="50" as="geometry" />
        </mxCell>
        <mxCell id="0T_iKl2mhXwXP4Xsc4Me-47" value="R" style="whiteSpace=wrap;html=1;aspect=fixed;" parent="1" vertex="1">
          <mxGeometry x="383" y="580" width="50" height="50" as="geometry" />
        </mxCell>
        <mxCell id="0T_iKl2mhXwXP4Xsc4Me-58" style="edgeStyle=orthogonalEdgeStyle;rounded=0;orthogonalLoop=1;jettySize=auto;html=1;exitX=0.5;exitY=0;exitDx=0;exitDy=0;" parent="1" source="0T_iKl2mhXwXP4Xsc4Me-51" edge="1">
          <mxGeometry relative="1" as="geometry">
            <mxPoint x="233.27586206896558" y="670" as="targetPoint" />
          </mxGeometry>
        </mxCell>
        <mxCell id="0T_iKl2mhXwXP4Xsc4Me-59" style="edgeStyle=orthogonalEdgeStyle;rounded=0;orthogonalLoop=1;jettySize=auto;html=1;exitX=1;exitY=0.75;exitDx=0;exitDy=0;" parent="1" source="0T_iKl2mhXwXP4Xsc4Me-51" edge="1">
          <mxGeometry relative="1" as="geometry">
            <mxPoint x="343" y="720" as="targetPoint" />
          </mxGeometry>
        </mxCell>
        <mxCell id="0T_iKl2mhXwXP4Xsc4Me-51" value="DST: &lt;u&gt;D&lt;/u&gt;&lt;br&gt;SRC: &lt;u&gt;S&lt;/u&gt;" style="rounded=0;whiteSpace=wrap;html=1;align=left;" parent="1" vertex="1">
          <mxGeometry x="203" y="750" width="60" height="40" as="geometry" />
        </mxCell>
        <mxCell id="0T_iKl2mhXwXP4Xsc4Me-52" value="DST: D&lt;br&gt;SRC: S" style="rounded=0;whiteSpace=wrap;html=1;align=left;" parent="1" vertex="1">
          <mxGeometry x="203" y="790" width="60" height="40" as="geometry" />
        </mxCell>
        <mxCell id="0T_iKl2mhXwXP4Xsc4Me-53" value="" style="endArrow=none;html=1;exitX=1;exitY=0.5;exitDx=0;exitDy=0;entryX=0;entryY=0.5;entryDx=0;entryDy=0;" parent="1" source="0T_iKl2mhXwXP4Xsc4Me-44" target="0T_iKl2mhXwXP4Xsc4Me-46" edge="1">
          <mxGeometry width="50" height="50" relative="1" as="geometry">
            <mxPoint x="243" y="710" as="sourcePoint" />
            <mxPoint x="293" y="660" as="targetPoint" />
          </mxGeometry>
        </mxCell>
        <mxCell id="0T_iKl2mhXwXP4Xsc4Me-56" value="" style="endArrow=none;html=1;exitX=0.5;exitY=0;exitDx=0;exitDy=0;entryX=0;entryY=0.5;entryDx=0;entryDy=0;" parent="1" source="0T_iKl2mhXwXP4Xsc4Me-46" target="0T_iKl2mhXwXP4Xsc4Me-47" edge="1">
          <mxGeometry width="50" height="50" relative="1" as="geometry">
            <mxPoint x="283" y="630" as="sourcePoint" />
            <mxPoint x="333" y="580" as="targetPoint" />
            <Array as="points">
              <mxPoint x="308" y="605" />
            </Array>
          </mxGeometry>
        </mxCell>
        <mxCell id="0T_iKl2mhXwXP4Xsc4Me-57" value="" style="endArrow=none;html=1;exitX=0.5;exitY=1;exitDx=0;exitDy=0;entryX=0;entryY=0.5;entryDx=0;entryDy=0;" parent="1" source="0T_iKl2mhXwXP4Xsc4Me-46" target="0T_iKl2mhXwXP4Xsc4Me-45" edge="1">
          <mxGeometry width="50" height="50" relative="1" as="geometry">
            <mxPoint x="304" y="740" as="sourcePoint" />
            <mxPoint x="397" y="740" as="targetPoint" />
            <Array as="points">
              <mxPoint x="308" y="715" />
            </Array>
          </mxGeometry>
        </mxCell>
        <mxCell id="0T_iKl2mhXwXP4Xsc4Me-60" value="DST: &lt;u&gt;D&lt;/u&gt;&lt;br&gt;SRC: &lt;u&gt;S&lt;/u&gt;" style="rounded=0;whiteSpace=wrap;html=1;align=left;" parent="1" vertex="1">
          <mxGeometry x="60" y="490" width="60" height="40" as="geometry" />
        </mxCell>
        <mxCell id="0T_iKl2mhXwXP4Xsc4Me-61" value="DST: D&lt;br&gt;SRC: S" style="rounded=0;whiteSpace=wrap;html=1;align=left;" parent="1" vertex="1">
          <mxGeometry x="60" y="530" width="60" height="40" as="geometry" />
        </mxCell>
        <mxCell id="0T_iKl2mhXwXP4Xsc4Me-62" value="第二层: MAC头部" style="text;html=1;align=center;verticalAlign=middle;resizable=0;points=[];autosize=1;" parent="1" vertex="1">
          <mxGeometry x="120" y="500" width="110" height="20" as="geometry" />
        </mxCell>
        <mxCell id="0T_iKl2mhXwXP4Xsc4Me-63" value="第三层: IP头部" style="text;html=1;align=center;verticalAlign=middle;resizable=0;points=[];autosize=1;" parent="1" vertex="1">
          <mxGeometry x="107" y="600" width="90" height="20" as="geometry" />
        </mxCell>
        <mxCell id="0T_iKl2mhXwXP4Xsc4Me-64" value="第三层: IP头部" style="text;html=1;align=center;verticalAlign=middle;resizable=0;points=[];autosize=1;" parent="1" vertex="1">
          <mxGeometry x="126" y="540" width="90" height="20" as="geometry" />
        </mxCell>
      </root>
    </mxGraphModel>
  </diagram>
</mxfile>
